PathFileType	4	(X/Y/Z)	s11c0102.trc
DataRate	CameraRate	NumFrames	NumMarkers	Units	OrigDataRate	OrigDataStartFrame	OrigNumFrames
200	200	4	48	mm	200	500	2000
Frame#	Time	racr			lacr			c7			jug			rlel			rdr			llel			ldr			s2			lic			ric			lasi			rasi			rpsi			lpsi			rgt			lgt			rth1			rth2			rth3			rth4			rlfc			rmfc			rsh1			rsh2			rsh3			rsh4			rlmal			rcal			rtoe			rmt5			lth1			lth2			lth4			lth3			llfc			lmfc			llmal			lcal			lmt5			lsh1			lsh2			lsh3			lsh4			ltoe			SBIKE			LBIKE			RBIKE			
		X1	Y1	Z1	X2	Y2	Z2	X3	Y3	Z3	X4	Y4	Z4	X5	Y5	Z5	X6	Y6	Z6	X7	Y7	Z7	X8	Y8	Z8	X9	Y9	Z9	X10	Y10	Z10	X11	Y11	Z11	X12	Y12	Z12	X13	Y13	Z13	X14	Y14	Z14	X15	Y15	Z15	X16	Y16	Z16	X17	Y17	Z17	X18	Y18	Z18	X19	Y19	Z19	X20	Y20	Z20	X21	Y21	Z21	X22	Y22	Z22	X23	Y23	Z23	X24	Y24	Z24	X25	Y25	Z25	X26	Y26	Z26	X27	Y27	Z27	X28	Y28	Z28	X29	Y29	Z29	X30	Y30	Z30	X31	Y31	Z31	X32	Y32	Z32	X33	Y33	Z33	X34	Y34	Z34	X35	Y35	Z35	X36	Y36	Z36	X37	Y37	Z37	X38	Y38	Z38	X39	Y39	Z39	X40	Y40	Z40	X41	Y41	Z41	X42	Y42	Z42	X43	Y43	Z43	X44	Y44	Z44	X45	Y45	Z45	X46	Y46	Z46	X47	Y47	Z47	X48	Y48	Z48	
500	2.5000	544.257097	1366.471635	-115.158031	512.628393	1369.424100	-438.646511	474.649512	1451.886931	-272.330524	469.733276	1267.155886	-289.808006	595.120536	1128.450278	31.967962	779.112125	930.551115	-71.213447	487.338915	1082.624589	-573.054859	762.198271	928.886966	-479.685900	-100.042679	1219.154009	-229.545970	98.815787	1259.392778	-450.577147	133.101386	1205.768801	-48.708128	128.306362	1189.384202	-406.214664	157.312333	1148.151072	-84.041287	-48.300737	1286.871785	-171.266769	-62.428626	1289.689741	-266.113229	51.441978	1048.629744	-35.701507	34.189871	1151.313131	-469.560428	117.852032	924.693527	-31.277801	178.073718	857.531802	-44.009373	195.006069	773.957623	-66.321353	209.706065	875.806842	-53.023684	246.822679	685.759897	-93.972638	232.370060	670.250867	-218.893233	207.060290	537.108623	-73.533378	206.535898	450.552779	-91.243103	165.223783	373.616398	-90.101427	229.389638	447.758498	-123.884839	126.244372	236.840541	-100.138260	60.477096	220.349867	-145.442744	344.252014	177.344873	-149.690725	275.964775	151.273419	-78.416930	173.993955	1103.818260	-482.537436	259.752917	1099.592545	-479.716801	271.858404	1130.960753	-462.837071	335.234705	1051.682046	-489.004470	456.285624	993.645971	-475.683549	480.828851	980.707690	-339.364320	202.974909	652.916406	-423.449646	140.391027	645.500612	-384.867618	278.216237	490.873808	-451.090111	389.082963	898.347540	-481.647182	361.440066	818.604520	-463.672173	295.859668	760.111215	-452.507200	390.584715	803.245432	-443.591289	371.205446	455.970437	-387.791589	-215.000525	955.507707	-256.723350	-17.707084	81.086462	-461.008356	-17.664266	81.050410	-62.161097	
501	2.5050	545.356104	1364.780354	-117.601248	511.860418	1368.793942	-439.825663	475.471069	1450.269578	-274.132951	469.789202	1265.609752	-292.180782	596.547490	1128.096632	31.277186	779.615763	929.991494	-71.141586	485.972044	1081.290760	-573.183367	762.232776	929.034867	-480.043819	-100.013880	1220.598517	-227.914117	97.990018	1260.325488	-449.346240	135.324523	1205.000930	-48.687478	127.350646	1190.481443	-404.679302	158.594049	1148.072404	-84.194385	-47.370925	1288.094038	-169.211916	-62.420597	1291.366781	-264.346699	51.571370	1049.681807	-34.307264	33.866859	1153.217628	-468.505849	120.190125	927.021381	-29.770767	177.289414	857.922960	-41.931311	194.436665	774.653284	-64.949666	209.099620	876.177217	-50.369296	246.579678	686.407501	-92.245522	234.860226	671.109868	-217.191683	205.102653	538.504296	-72.591678	202.873260	452.070480	-90.477202	160.080581	375.906254	-89.585258	226.127758	449.147890	-122.597594	118.319059	240.025137	-99.963103	52.177532	225.104774	-145.599252	335.064909	175.186798	-149.387842	266.103233	151.020564	-78.335431	173.644555	1105.721975	-481.565510	259.201164	1101.473171	-478.921908	271.482733	1133.018887	-462.071538	334.799293	1053.523240	-487.900768	455.315452	997.192368	-475.250301	480.471489	984.371177	-338.992936	208.635911	650.786895	-423.534026	145.547628	641.681667	-385.136073	288.161068	491.434124	-451.249941	390.427746	899.838011	-481.614892	364.454933	819.486468	-463.709426	300.129279	759.626224	-452.698170	393.784671	804.955477	-443.361159	382.177653	459.564528	-387.859120	-215.012596	955.532698	-256.612245	-17.696428	81.092788	-460.992908	-17.672250	81.048132	-62.160207	
502	2.5100	546.320764	1362.816817	-119.986579	511.310404	1367.915063	-440.712865	476.338091	1448.424332	-275.828332	469.856191	1263.835705	-294.383538	597.757255	1127.751831	31.256101	780.058360	929.677249	-70.979802	484.787958	1079.873455	-573.478126	762.229948	929.206839	-480.343247	-100.009264	1222.190120	-226.350765	97.198031	1261.297034	-448.523325	137.167277	1204.663078	-48.642080	126.410654	1191.698608	-403.680640	159.800913	1147.962384	-84.307410	-46.558525	1289.507289	-167.237713	-62.439490	1293.271789	-262.700538	51.790796	1050.872707	-33.176386	32.266682	1153.962770	-465.744820	116.793778	925.442876	-28.518340	177.177869	858.658896	-40.182921	194.667184	775.899653	-63.959575	209.214392	877.074371	-47.202958	247.291594	687.424199	-90.462791	238.809680	672.479571	-215.862708	204.031060	540.325324	-71.667267	199.906123	453.970244	-89.776116	155.448975	378.853364	-89.104060	222.086072	450.352205	-122.494245	110.460046	244.183983	-99.558287	44.358014	230.948708	-145.422788	325.925889	173.673310	-149.275898	256.335290	151.397773	-78.246289	172.904864	1107.188499	-480.541023	258.483889	1102.902604	-478.030019	270.817344	1134.465520	-461.423898	333.993541	1054.751207	-486.850698	454.473521	999.872532	-474.393159	479.627314	987.160587	-338.395958	214.042907	647.700876	-423.849604	150.598262	636.829127	-385.532288	297.953674	491.231303	-451.456940	391.531894	900.492182	-481.237438	367.176072	819.533943	-463.557503	304.056087	758.368315	-452.828596	396.624453	805.759403	-442.973535	392.910978	462.530252	-387.825947	-214.998921	955.551340	-256.484289	-17.702102	81.119790	-460.973067	-17.670255	81.073300	-62.132611	
503	2.5150	547.158254	1360.573849	-122.272093	510.960334	1366.585965	-441.366122	477.160656	1446.357953	-277.404251	469.890942	1261.821672	-296.241123	598.696419	1127.495361	31.565818	780.295356	929.512236	-70.851904	483.771874	1078.418823	-574.006190	762.110487	929.326387	-480.589992	-100.223791	1223.929984	-224.802975	96.289878	1262.354164	-447.937734	139.628380	1204.955190	-47.816757	125.359952	1192.947769	-402.987544	160.572615	1147.947581	-84.419814	-45.796153	1290.945882	-165.586967	-62.461020	1295.121564	-261.104836	51.977366	1051.945508	-32.165036	31.304566	1155.086538	-464.371078	116.299340	926.422139	-27.412311	177.749410	859.786523	-38.753620	196.060240	777.417919	-63.197630	209.935116	878.356898	-44.674221	247.577756	688.793957	-88.997824	243.884726	674.619485	-214.496895	203.668725	542.690855	-70.791769	197.562995	456.523748	-89.111521	151.328409	382.445248	-88.640637	219.722094	452.529149	-121.813688	103.371768	249.078678	-99.503503	37.345540	237.722562	-145.550439	316.865145	172.493347	-149.267475	246.873412	152.754954	-77.974293	171.846995	1108.242829	-479.540153	257.381687	1103.776660	-477.160054	269.841701	1135.440106	-460.776565	332.632735	1055.591261	-485.827498	453.104167	1001.832189	-473.480387	478.398124	989.162466	-337.556113	219.102761	643.833910	-424.269246	155.287575	631.017755	-385.919677	307.529832	490.400012	-451.798776	392.337026	900.100419	-480.800995	369.498465	818.611480	-463.361652	307.554942	756.226153	-452.969224	399.069556	805.456757	-442.466438	403.385389	465.024881	-388.023962	-214.994325	955.624302	-256.391212	-17.680685	81.182179	-461.015199	-17.664246	81.067840	-62.136251	
